<?xml version="1.0" encoding="UTF-8"?>
<svg id="Layer_2" xmlns="http://www.w3.org/2000/svg" viewBox="0 0 202.85 22.81">
  <defs>
    <style>
      .cls-1 {
        fill: #fff;
      }

      .cls-2 {
        fill: #e6e7e8;
      }
    </style>
  </defs>
  <g id="Layer_1-2" data-name="Layer_1">
    <path class="cls-2" d="M22.38,11.97l-10.47,10.52c-.33.33-.86.33-1.2,0L.25,11.97c-.33-.33-.33-.86,0-1.21L10.71.25c.33-.33.86-.33,1.2,0l10.47,10.52c.33.34.33.88,0,1.21Z"/>
    <path class="cls-1" d="M20.89,9.28c-6.47.42-14.25,2.84-18.86,4.48l-1.77-1.77c-.33-.33-.33-.86,0-1.21L10.72.26c.33-.33.86-.33,1.2,0l8.96,9.02Z"/>
    <path class="cls-1" d="M50.38,1.34h-3.81v20.82h3.81V1.34Z"/>
    <path class="cls-1" d="M79.67,3.38c-1.49-1.34-3.34-2.02-5.47-2.02-1.2,0-2.35.25-3.46.74-.98.44-1.86,1.05-2.59,1.81-.63-.76-1.44-1.36-2.4-1.8-1.04-.49-2.18-.74-3.38-.74-.94,0-1.83.14-2.65.42-.63.23-1.21.53-1.72.92v-.67h-3.81v20.16h3.81v-13.81c0-1.07.43-1.93,1.3-2.65.85-.72,1.88-1.08,3.07-1.08,1.11,0,2.07.38,2.86,1.11.79.72,1.18,1.57,1.18,2.6v13.77h3.81v-13.76c0-1.05.38-1.9,1.19-2.62.77-.75,1.69-1.11,2.81-1.11s2.05.36,2.82,1.11c.79.72,1.18,1.57,1.18,2.6v13.77h3.81v-13.76c0-1.97-.79-3.65-2.35-5Z"/>
    <path class="cls-1" d="M103.42,18.34c-.37-.33-.56-.72-.56-1.18V7.06c0-1.79-.81-3.26-2.43-4.41-1.52-1.07-3.33-1.6-5.39-1.6s-4.03.52-5.58,1.56c-1.72,1.15-2.59,2.65-2.59,4.46v1.64h3.86v-.97c0-.97.42-1.76,1.29-2.41.86-.64,1.88-.96,3.03-.96,1.09,0,2.04.33,2.83.99.78.66,1.17,1.43,1.17,2.38,0,.81-.48,1.39-1.46,1.76-.76.31-1.9.52-3.39.65-2.24.18-4.16.8-5.71,1.82-1.74,1.18-2.64,2.7-2.64,4.5s.7,3.32,2.09,4.4c1.34,1.07,3.15,1.62,5.38,1.62,1.35,0,2.6-.22,3.73-.64,1.08-.4,1.95-.99,2.61-1.75.32.56.76,1.03,1.35,1.42.72.44,1.55.66,2.44.66h1.57v-3.33h-.31c-.51,0-.94-.16-1.3-.5ZM99.06,14.45c0,1.33-.57,2.39-1.72,3.26-1.11.86-2.46,1.31-4.02,1.31-1.01,0-1.87-.24-2.57-.71-.74-.5-1.1-1.11-1.1-1.88,0-.85.38-1.54,1.19-2.1.77-.56,1.71-.88,2.79-.97l.91-.05c2.04-.16,3.51-.49,4.48-1.04l.03,2.16Z"/>
    <path class="cls-1" d="M124.2,3.74c-1.62-1.58-3.61-2.39-5.91-2.39-1.29,0-2.48.22-3.55.65-.83.35-1.53.84-2.07,1.44v-1.43s-3.8,0-3.8,0v20.16h3.81v-12.76c0-1.27.49-2.33,1.5-3.23,1.01-.89,2.23-1.34,3.62-1.34s2.59.45,3.58,1.34c.98.9,1.46,1.95,1.46,3.23v12.76h3.81v-12.76c-.01-2.21-.84-4.11-2.46-5.66Z"/>
    <path class="cls-1" d="M40.47,11.34c-1.41-1.13-3.16-1.77-5.15-1.92-1.52-.11-2.72-.39-3.56-.82-1.05-.48-1.56-1.16-1.56-2.07,0-.76.32-1.36.95-1.83.67-.47,1.58-.69,2.7-.69,1.34,0,2.41.35,3.2,1.04.58.5.94,1.11,1.09,1.84l3.51-1.55c-.37-1.06-1-1.97-1.89-2.71-1.47-1.29-3.45-1.93-5.91-1.93-2.23,0-4.04.52-5.38,1.57-1.39,1.06-2.1,2.49-2.1,4.27,0,1.65.69,3.08,2.04,4.25,1.27,1.13,2.85,1.79,4.71,1.93,1.65.15,3.01.49,4.04,1.02,1.19.63,1.78,1.44,1.78,2.51,0,.74-.4,1.34-1.22,1.82-.86.5-2.05.75-3.53.75s-2.58-.4-3.43-1.19c-.72-.67-1.12-1.51-1.23-2.55l-3.61,1.36c.35,1.42,1.09,2.64,2.23,3.62,1.6,1.38,3.76,2.07,6.43,2.07,2.44,0,4.44-.57,5.93-1.71,1.49-1.15,2.26-2.71,2.26-4.63-.01-1.75-.77-3.25-2.29-4.46Z"/>
    <path class="cls-1" d="M202.85,8.99v13.76h-2.13v-13.76c0-1.39-.53-2.57-1.57-3.51-1-.97-2.24-1.46-3.68-1.46s-2.68.49-3.68,1.46c-1.04.96-1.57,2.14-1.57,3.53v13.76h-2.13v-13.76c0-1.39-.53-2.57-1.57-3.51-1.03-.97-2.29-1.46-3.73-1.46s-2.82.47-3.89,1.38c-1.17.96-1.76,2.16-1.76,3.59v13.76h-2.13V3.15h2.13v1.71s1.56-1.18,1.56-1.18c.46-.35,1-.64,1.56-.84.77-.26,1.63-.4,2.52-.4,1.14,0,2.22.24,3.23.71.89.41,1.64.97,2.22,1.66l.7.84.76-.78c.69-.72,1.52-1.3,2.46-1.72,1.05-.47,2.17-.71,3.31-.71,2.04,0,3.79.65,5.21,1.92h.02c1.44,1.27,2.17,2.83,2.17,4.64Z"/>
    <path class="cls-1" d="M148.04,18.06s-2.22,2.76-6.38,2.76c-4.74,0-8.18-3.56-8.18-8.46s3.44-8.54,8.18-8.54c3.62,0,5.83,2.43,5.85,2.46l.14.15,1.22-1.6-.09-.1s-2.44-2.84-7.11-2.84c-5.84,0-10.23,4.5-10.23,10.49s4.3,10.41,10.23,10.41c4.85,0,7.48-3.09,7.5-3.12l.08-.09-1.05-1.67-.16.17Z"/>
    <path class="cls-1" d="M161.78,1.79c-5.66,0-10.26,4.72-10.26,10.51s4.61,10.51,10.26,10.51,10.26-4.72,10.26-10.51-4.61-10.51-10.26-10.51ZM161.78,20.71c-4.51,0-8.19-3.76-8.19-8.41s3.68-8.41,8.19-8.41,8.19,3.76,8.19,8.41-3.68,8.41-8.19,8.41Z"/>
    <path class="cls-1" d="M131.42,19.23h-2.91v2.92h2.91v-2.92Z"/>
  </g>
</svg>