<?xml version="1.0" encoding="UTF-8"?>
<svg xmlns="http://www.w3.org/2000/svg" version="1.1" xmlns:xlink="http://www.w3.org/1999/xlink" viewBox="0 0 203 202">
  <defs>
    <style>
      .cls-1 {
        fill: #f1f1f2;
      }

      .cls-2 {
        fill: none;
      }

      .cls-3 {
        fill: #a83338;
      }

      .cls-4 {
        clip-path: url(#clippath);
      }

      .cls-5 {
        fill: #ef3742;
      }
    </style>
    <clipPath id="clippath">
      <rect class="cls-2" x=".7" y="0" width="201.7" height="201.7"/>
    </clipPath>
  </defs>
  <!-- Generator: Adobe Illustrator 28.6.0, SVG Export Plug-In . SVG Version: 1.2.0 Build 709)  -->
  <g>
    <g id="Layer_1">
      <g>
        <path class="cls-3" d="M200.1,106.4l-93.3,93.8c-2.9,2.9-7.7,2.9-10.7,0L2.9,106.4c-2.9-2.9-2.9-7.7,0-10.7L96.2,1.8c2.9-2.9,7.7-2.9,10.7,0l93.3,93.8c2.9,3,2.9,7.8,0,10.7Z"/>
        <path class="cls-5" d="M186.8,82.3c-57.7,3.8-127,25.3-168.1,39.9l-15.7-15.8c-2.9-2.9-2.9-7.7,0-10.7L96.3,1.9c2.9-2.9,7.7-2.9,10.7,0l79.9,80.4Z"/>
      </g>
      <g class="cls-4">
        <path class="cls-1" d="M129.2,97.4c-6.4-5.1-14.3-8-23.3-8.7-6.9-.5-12.3-1.8-16.1-3.7-4.8-2.2-7.1-5.2-7.1-9.3s1.4-6.1,4.3-8.2c3-2.1,7.2-3.2,12.2-3.2s10.9,1.6,14.5,4.7c2.6,2.3,4.2,5,4.9,8.3l15.9-7c-1.7-4.8-4.5-8.8-8.5-12.2-6.6-5.8-15.6-8.7-26.8-8.7s-18.3,2.4-24.3,7c-6.3,4.8-9.5,11.2-9.5,19.2s3.1,13.9,9.2,19.1c5.8,5.1,12.9,8,21.3,8.7,7.5.6,13.6,2.2,18.3,4.6,5.4,2.8,8,6.5,8,11.3s-1.8,6-5.5,8.2c-3.9,2.3-9.3,3.4-16,3.4s-11.7-1.8-15.5-5.4c-3.3-3-5.1-6.8-5.6-11.5l-16.3,6.1c1.6,6.4,4.9,11.9,10.1,16.3,7.2,6.2,17,9.3,29.1,9.3s20.1-2.6,26.8-7.7c6.8-5.2,10.2-12.2,10.2-20.9s-3.5-14.6-10.3-20h0Z"/>
      </g>
    </g>
  </g>
</svg>