<?xml version="1.0" encoding="UTF-8"?>
<svg id="Layer_2" xmlns="http://www.w3.org/2000/svg" viewBox="0 0 64 64">
  <defs>
    <style>
      .cls-1 {
        fill: #fff;
      }

      .cls-2 {
        fill: #e8a600;
      }
    </style>
  </defs>
  <g id="OBJECTS">
    <g>
      <path class="cls-1" d="M24.07,0h39.93v39.94c0,13.28-10.78,24.06-24.06,24.06H0V24.07C0,10.78,10.78,0,24.07,0Z"/>
      <path class="cls-2" d="M47.78,24.02c-.07,0-.13.01-.19.01-.59.02-1.16.09-1.7.23-.04.01-.09.02-.13.02-1.88.5-3.49,1.67-4.54,3.25.78-2.2,2.51-3.95,4.69-4.76-.21-6.36-5.41-11.46-11.83-11.46-4.71,0-8.77,2.76-10.67,6.75.01,0,.02.01.03.02,2.87,1.79,4.79,4.96,4.79,8.59,0,.08-.01.16-.01.24-.78-2.97-2.86-5.41-5.6-6.65,0,0,0,0,0,0-.31-.14-.63-.27-.96-.38-.02,0-.05-.01-.07-.02-.28-.09-.57-.17-.86-.24-.08-.02-.16-.04-.25-.05-.24-.05-.48-.09-.73-.12-.1-.01-.2-.03-.3-.04-.3-.03-.61-.05-.93-.05-.03,0-.05,0-.08,0-.25,0-.49.02-.73.04-.1,0-.2,0-.3.01-.14.01-.27.04-.4.06-.2.03-.4.05-.6.09-.12.02-.24.06-.36.09-.2.05-.41.1-.61.16-.12.04-.24.09-.35.13-.19.07-.38.13-.57.21-.13.05-.25.12-.38.18-.17.08-.34.15-.5.24-.14.07-.27.16-.4.24-.14.08-.28.16-.42.26-.15.1-.29.21-.43.32-.11.09-.23.17-.34.26-.15.13-.3.26-.44.39-.09.08-.18.16-.27.24-.15.15-.3.32-.44.48-.07.08-.14.15-.2.22-.15.18-.29.37-.43.56-.05.07-.1.13-.15.2-.14.2-.27.42-.4.63-.04.06-.08.12-.11.18-.13.23-.24.46-.35.7-.03.06-.06.11-.08.17-.11.24-.2.49-.29.75-.02.05-.04.11-.06.16-.08.26-.15.52-.22.78-.01.06-.03.11-.04.17-.06.26-.1.53-.14.8,0,.06-.02.12-.03.19-.03.26-.05.53-.06.8,0,.14-.02.27-.02.41,0,5.59,4.53,10.12,10.12,10.12.5,0,.98-.05,1.46-.12v10.94s0,0,0,0c0,1.11,5.74,2.01,12.83,2.01s12.76-.91,12.76-2.02v-.2s0-10.75,0-10.75c.74.23,1.52.35,2.32.35,3.44,0,6.36-2.2,7.44-5.27.06-.18.12-.37.17-.55,0-.03.02-.06.02-.09.05-.19.09-.38.13-.58,0-.03.01-.07.02-.1.07-.42.11-.84.11-1.28,0-4.37-3.54-7.91-7.91-7.91ZM34.12,12.45c5.31,0,9.72,3.82,10.65,8.86-1.83-4.91-6.54-8.41-12.09-8.41-.77,0-1.51.08-2.25.21,1.15-.42,2.39-.66,3.68-.66ZM32.71,36.95c6.08,0,11.07,1.01,11.6,2.13-1.79-.69-6.3-1.18-11.6-1.18s-9.81.49-11.6,1.18c.54-1.12,5.52-2.13,11.6-2.13ZM32.71,46.52c6.08,0,11.09.79,11.6,1.7-1.79-.69-6.3-1.18-11.6-1.18s-9.81.49-11.6,1.18c.5-.92,5.52-1.7,11.6-1.7ZM32.71,51.38c-6.44,0-11.65-.77-11.65-1.72s5.22-1.72,11.65-1.72,11.65.77,11.65,1.72-5.22,1.72-11.65,1.72ZM46.96,25.37c-.48,0-.95.05-1.41.13.72-.26,1.5-.41,2.32-.41,3.34,0,6.11,2.4,6.69,5.57-1.15-3.08-4.11-5.28-7.6-5.28Z"/>
    </g>
  </g>
</svg>