<?xml version="1.0" encoding="UTF-8"?>
<svg id="Layer_2" xmlns="http://www.w3.org/2000/svg" viewBox="0 0 215.66 43.98">
  <defs>
    <style>
      .cls-1 {
        fill: #fff;
      }

      .cls-2 {
        fill: #e8a600;
      }
    </style>
  </defs>
  <g id="OBJECTS">
    <g>
      <g>
        <path class="cls-1" d="M63.25,21.25c-.16.79-.35,1.89-.58,3.29-.23,1.41-.38,2.5-.46,3.27-2.87.43-5.42.64-7.67.64s-4.19-.27-6.06-.81c-1.87-.54-3.58-1.43-5.14-2.67s-2.67-2.69-3.34-4.37c-.67-1.67-1-3.55-1-5.62,0-2.42.45-4.6,1.36-6.54.9-1.94,2.2-3.55,3.9-4.84,1.69-1.29,3.55-2.22,5.57-2.77,2.02-.56,4.11-.83,6.27-.83,1.98,0,4.43.25,7.35.76l.04,1.69c.03.74.07,1.55.12,2.43l.14,2.29c-1.57-.37-2.84-.63-3.81-.76-.97-.13-1.87-.2-2.7-.2-1.81,0-3.44.36-4.88,1.08-1.45.72-2.58,1.77-3.42,3.15-.83,1.38-1.25,2.91-1.25,4.58,0,1.53.35,2.84,1.04,3.93s1.64,1.94,2.82,2.53c1.19.6,2.65.89,4.39.89.95,0,1.98-.08,3.1-.23,1.12-.15,2.52-.45,4.21-.89Z"/>
        <path class="cls-1" d="M68.74,13.28c.25-1.33.41-2.24.48-2.74.07-.5.17-1.29.32-2.36,3.86-.84,7.17-1.27,9.94-1.27,1.58,0,3.03.18,4.34.53,1.31.35,2.34.93,3.07,1.72.74.79,1.1,1.92,1.1,3.4,0,.75-.1,2.44-.3,5.06-.2,2.62-.35,6.07-.46,10.33-1.31-.03-2.62-.04-3.92-.04s-2.6.01-4.02.04c.18-1.47.39-4.51.61-9.12-.51.24-.91.42-1.19.52-.29.11-.79.27-1.51.48-.72.21-1.29.4-1.69.54-.41.15-.76.33-1.06.56-.3.23-.51.46-.64.7s-.19.51-.19.8c0,.46.18.84.54,1.17.36.32.94.48,1.73.48.28,0,.58-.02.9-.07.32-.05.76-.16,1.33-.35-.39,1.03-.85,2.54-1.39,4.52-1.15.19-2.24.28-3.27.28-1.66,0-3.04-.23-4.15-.69-1.1-.46-1.96-1.21-2.55-2.24-.6-1.03-.89-2.06-.89-3.09,0-.63.11-1.25.33-1.85.22-.6.57-1.19,1.03-1.77.47-.58,1.02-1.07,1.65-1.48.63-.41,1.49-.79,2.58-1.16,1.09-.36,2.47-.7,4.15-1.02.7-.13,1.33-.28,1.92-.43.58-.15,1-.29,1.25-.4s.45-.25.6-.4.26-.31.33-.48c.07-.17.1-.34.1-.53,0-.51-.21-.9-.64-1.18-.43-.27-1.06-.41-1.89-.41-2.3,0-5.15.65-8.53,1.95Z"/>
        <path class="cls-1" d="M106.7,22.04c-.24,1.12-.45,2.22-.62,3.29l-.44,2.45c-1.33.29-2.36.48-3.1.56-.74.08-1.46.12-2.16.12-1.14,0-2.15-.1-3.03-.29-.88-.19-1.62-.55-2.21-1.06-.59-.52-.99-1.11-1.21-1.78-.21-.67-.32-1.38-.32-2.13,0-.13,0-.37.02-.71.01-.34.06-1.1.14-2.28l.44-6.95h-3.13c.07-.92.13-2.14.18-3.66l.06-1.87h3.33c.08-.62.18-1.96.3-4.04l3.44-.7c.63-.12,1.97-.43,4.02-.92-.09,1.75-.16,3.64-.2,5.67h4.58c-.11,2.79-.16,4.63-.16,5.52h-4.62l-.24,5.02c-.03.75-.04,1.23-.04,1.45,0,.64.07,1.18.21,1.61s.39.74.74.92c.35.19.75.28,1.18.28.32,0,.66-.02,1-.07.35-.05.96-.19,1.85-.43Z"/>
        <path class="cls-1" d="M129.16,21.88c-.17.8-.51,2.75-1,5.83-1.55.31-2.86.51-3.92.61-1.06.1-2.13.15-3.21.15-1.59,0-3.06-.11-4.4-.33-1.34-.22-2.49-.61-3.47-1.17-.97-.56-1.78-1.26-2.44-2.1-.66-.84-1.15-1.83-1.5-2.98-.34-1.15-.51-2.33-.51-3.55,0-1.71.34-3.39,1.02-5.03.68-1.64,1.56-2.92,2.64-3.84,1.08-.92,2.32-1.58,3.73-1.97,1.41-.39,2.85-.58,4.32-.58s2.98.18,4.37.53c1.39.35,2.56.97,3.53,1.86s1.65,1.88,2.06,2.99c.41,1.11.61,2.31.61,3.6,0,.76-.09,1.61-.26,2.55l-14.08.02c-.01.21-.02.41-.02.58,0,1.44.52,2.5,1.55,3.18s2.29,1.02,3.78,1.02c.88,0,1.89-.1,3.02-.31s2.53-.56,4.19-1.05ZM116.81,15.39h6.63c.01-.23.02-.42.02-.58,0-.7-.12-1.29-.37-1.79-.25-.5-.6-.86-1.06-1.08-.46-.23-.98-.34-1.56-.34-.4,0-.79.06-1.17.19s-.71.31-1.01.56c-.3.25-.55.53-.75.85s-.35.63-.44.93c-.09.3-.19.72-.28,1.26Z"/>
        <path class="cls-1" d="M133.6,27.94l.62-8.92.2-5.12c.01-.92.02-1.87.02-2.83s-.01-2.19-.04-3.64c1.62.03,2.91.04,3.86.04,1.11,0,2.39-.01,3.84-.04l-.08,2.27c.52-.59.95-1.03,1.29-1.32.33-.29.72-.55,1.15-.78s.88-.41,1.35-.52.96-.17,1.47-.17c.48,0,1.02.07,1.61.2.01,1.46.05,2.67.1,3.62l.14,3.09c-.74-.21-1.42-.32-2.07-.32-.8,0-1.5.12-2.08.35-.58.23-1.1.59-1.55,1.06-.45.48-.81,1.07-1.07,1.78-.27.71-.46,1.83-.56,3.37-.11,1.54-.16,3.3-.16,5.28,0,.7.03,1.56.08,2.59-1.3-.03-2.61-.04-3.92-.04s-2.69.01-4.18.04Z"/>
        <path class="cls-1" d="M151.18,27.94c.19-1.63.33-2.98.42-4.04.09-1.06.18-2.41.27-4.06.09-1.65.16-3.47.23-5.46.07-2,.12-4.31.16-6.95,1.74.03,3.14.04,4.18.04.95,0,2.32-.01,4.1-.04-.23,2.53-.4,4.75-.5,6.67-.1,1.92-.17,3.94-.19,6.09-.05,3.8-.08,6.39-.08,7.75-1.59-.03-2.96-.04-4.11-.04s-2.63.01-4.48.04ZM152.44,4.86c.08-1.59.12-2.85.12-3.78,0-.27,0-.63-.02-1.08,1.62.03,2.98.04,4.08.04,1.51,0,2.84-.01,3.98-.04-.04.42-.07.76-.08,1.04l-.12,2.49c-.03.38-.04.82-.04,1.33-1.33-.03-2.6-.04-3.82-.04s-2.62.01-4.1.04Z"/>
        <path class="cls-1" d="M163.93,27.94c.39-3.04.68-6.4.89-10.07.21-3.68.33-7.15.37-10.44,1.61.03,3,.04,4.16.04,1.35,0,2.65-.01,3.9-.04l-.2,2.73c.44-.5.82-.89,1.15-1.18.32-.29.72-.57,1.2-.84.48-.27.98-.5,1.52-.67.54-.17,1.12-.31,1.76-.41.64-.1,1.3-.15,2-.15.96,0,1.91.1,2.82.31s1.68.5,2.3.88c.62.38,1.13.86,1.55,1.43.42.57.69,1.18.82,1.84.13.66.2,1.33.2,2.03,0,.51-.05,1.61-.16,3.29l-.35,7.27c-.07,1.43-.1,2.76-.1,3.98-1.35-.03-2.62-.04-3.79-.04-1.59,0-3.04.01-4.35.04.12-1.22.25-3.03.38-5.43.14-2.4.2-4.09.2-5.07,0-1.51-.29-2.57-.88-3.16-.58-.6-1.32-.89-2.2-.89-.78,0-1.51.25-2.2.76-.69.51-1.22,1.25-1.6,2.22s-.64,2.57-.79,4.79c-.15,2.22-.26,4.49-.31,6.79-1.34-.03-2.64-.04-3.92-.04-1.34,0-2.79.01-4.36.04Z"/>
        <path class="cls-1" d="M193.7,30.43c1.73.59,3.25,1,4.56,1.24,1.31.23,2.46.35,3.44.35.71,0,1.35-.08,1.93-.23.58-.15,1.04-.34,1.39-.57.35-.23.65-.52.89-.86.25-.35.44-.74.57-1.17.13-.43.23-.92.28-1.49.05-.56.1-1.34.14-2.33-.52.47-.97.84-1.36,1.12-.38.28-.85.55-1.42.81s-1.17.46-1.84.6-1.36.21-2.1.21c-1.7,0-3.23-.39-4.6-1.19-1.37-.79-2.38-1.9-3.05-3.31-.67-1.42-1-2.95-1-4.6,0-1.94.36-3.7,1.08-5.26s1.76-2.89,3.1-3.98c1.34-1.08,2.82-1.83,4.43-2.25,1.61-.42,3.43-.62,5.46-.62,1.16,0,2.49.07,3.96.21s3.51.45,6.09.91l-.47,6.63-.42,7.27c-.03.52-.04.95-.04,1.29l-.16,6.53c-.03.83-.13,1.62-.3,2.37-.15.68-.4,1.32-.74,1.91-.35.59-.78,1.1-1.29,1.55-.56.48-1.19.86-1.89,1.15-.71.29-1.55.54-2.51.72-1.04.19-2.14.28-3.27.28-.64,0-1.43-.03-2.37-.09-.94-.06-1.9-.15-2.88-.27s-1.83-.25-2.55-.38-1.62-.33-2.72-.58l-.14-2.65c-.01-.51-.08-1.61-.2-3.31ZM207.48,13.06c-.83-.16-1.57-.24-2.22-.24-1.2,0-2.24.23-3.12.69s-1.55,1.15-2.03,2.07c-.48.92-.72,1.88-.72,2.87,0,.73.13,1.4.38,2.01.25.62.67,1.1,1.26,1.46.59.36,1.21.53,1.86.53.96,0,1.82-.35,2.56-1.05.75-.7,1.26-1.65,1.54-2.86.28-1.21.44-3.04.48-5.5Z"/>
      </g>
      <g>
        <path class="cls-1" d="M11.82,0h19.62v19.62c0,6.52-5.3,11.82-11.82,11.82H0V11.83C0,5.31,5.3,0,11.82,0Z"/>
        <path class="cls-2" d="M23.47,11.81s-.06,0-.1,0c-.29,0-.57.05-.84.11-.02,0-.04,0-.07.01-.92.25-1.71.82-2.23,1.6.38-1.08,1.23-1.94,2.3-2.34-.1-3.13-2.66-5.63-5.81-5.63-2.32,0-4.31,1.36-5.24,3.31,0,0,0,0,.01.01,1.41.88,2.35,2.44,2.35,4.22,0,.04,0,.08,0,.12-.38-1.46-1.41-2.66-2.75-3.27,0,0,0,0,0,0-.15-.07-.31-.13-.47-.19-.01,0-.02,0-.03-.01-.14-.05-.28-.08-.42-.12-.04,0-.08-.02-.12-.03-.12-.02-.24-.04-.36-.06-.05,0-.1-.01-.15-.02-.15-.01-.3-.02-.45-.02-.01,0-.03,0-.04,0-.12,0-.24,0-.36.02-.05,0-.1,0-.14,0-.07,0-.13.02-.2.03-.1.01-.2.03-.29.04-.06.01-.12.03-.17.04-.1.02-.2.05-.3.08-.06.02-.12.04-.17.06-.09.03-.19.06-.28.1-.06.03-.12.06-.18.09-.08.04-.17.08-.25.12-.07.04-.13.08-.2.12-.07.04-.14.08-.21.13-.07.05-.14.1-.21.15-.06.04-.11.08-.17.13-.08.06-.15.13-.22.19-.04.04-.09.08-.13.12-.08.07-.15.15-.22.23-.03.04-.07.07-.1.11-.07.09-.14.18-.21.27-.02.03-.05.07-.07.1-.07.1-.13.21-.2.31-.02.03-.04.06-.05.09-.06.11-.12.23-.17.34-.01.03-.03.05-.04.08-.05.12-.1.24-.14.37,0,.03-.02.05-.03.08-.04.13-.08.25-.11.39,0,.03-.01.05-.02.08-.03.13-.05.26-.07.39,0,.03-.01.06-.01.09-.02.13-.02.26-.03.39,0,.07-.01.13-.01.2,0,2.75,2.23,4.97,4.97,4.97.24,0,.48-.02.72-.06v5.37s0,0,0,0c0,.55,2.82.99,6.3.99s6.27-.45,6.27-.99v-.1s0-5.28,0-5.28c.36.11.74.17,1.14.17,1.69,0,3.12-1.08,3.65-2.59.03-.09.06-.18.08-.27,0-.01,0-.03.01-.04.02-.09.05-.19.06-.28,0-.02,0-.03,0-.05.03-.2.05-.41.05-.63,0-2.15-1.74-3.89-3.89-3.89ZM16.76,6.13c2.61,0,4.77,1.88,5.23,4.35-.9-2.41-3.21-4.13-5.94-4.13-.38,0-.74.04-1.1.1.57-.2,1.17-.32,1.81-.32ZM16.07,18.16c2.99,0,5.44.5,5.7,1.05-.88-.34-3.1-.58-5.7-.58s-4.82.24-5.7.58c.26-.55,2.71-1.05,5.7-1.05ZM16.07,22.86c2.99,0,5.45.39,5.7.84-.88-.34-3.1-.58-5.7-.58s-4.82.24-5.7.58c.24-.45,2.71-.84,5.7-.84ZM16.07,25.25c-3.16,0-5.73-.38-5.73-.84s2.56-.84,5.73-.84,5.73.38,5.73.84-2.56.84-5.73.84ZM23.07,12.47c-.24,0-.47.02-.69.06.36-.13.74-.2,1.14-.2,1.64,0,3,1.18,3.29,2.73-.56-1.51-2.02-2.6-3.73-2.6Z"/>
      </g>
      <g>
        <g>
          <path class="cls-2" d="M105.01,43.68c-.47-.2-.84-.49-1.12-.87-.27-.38-.42-.83-.42-1.34h1.81c.02.35.15.62.37.82.22.2.53.3.91.3s.71-.09.93-.28c.23-.19.34-.44.34-.74,0-.25-.08-.46-.23-.62-.15-.16-.35-.29-.58-.38-.23-.09-.55-.2-.95-.31-.55-.16-.99-.32-1.34-.48-.34-.16-.64-.4-.88-.71-.25-.32-.37-.74-.37-1.28,0-.5.12-.94.38-1.31.25-.37.6-.66,1.05-.85s.97-.3,1.55-.3c.87,0,1.58.21,2.12.64.54.42.84,1.01.9,1.77h-1.86c-.02-.29-.14-.53-.37-.72s-.53-.28-.91-.28c-.33,0-.59.08-.79.25s-.3.42-.3.74c0,.23.07.41.22.56.15.15.33.27.56.36.22.09.53.2.94.32.55.16,1,.32,1.34.48.35.16.65.4.9.73.25.32.38.75.38,1.27,0,.45-.12.87-.35,1.26s-.58.7-1.03.93c-.45.23-.99.34-1.61.34-.59,0-1.12-.1-1.59-.3Z"/>
          <path class="cls-2" d="M112.74,36.82v2.12h2.84v1.34h-2.84v2.24h3.21v1.38h-4.9v-8.46h4.9v1.38h-3.21Z"/>
          <path class="cls-2" d="M121.84,43.9l-1.86-3.29h-.8v3.29h-1.69v-8.45h3.17c.65,0,1.21.11,1.67.34.46.23.8.54,1.03.93.23.39.34.83.34,1.31,0,.56-.16,1.06-.48,1.51-.32.45-.8.76-1.44.93l2.02,3.42h-1.96ZM119.18,39.34h1.42c.46,0,.8-.11,1.03-.33.23-.22.34-.53.34-.93s-.11-.69-.34-.9c-.23-.21-.57-.32-1.03-.32h-1.42v2.48Z"/>
          <path class="cls-2" d="M132.83,35.45l-3.1,8.45h-2.06l-3.1-8.45h1.81l2.32,6.71,2.31-6.71h1.8Z"/>
          <path class="cls-2" d="M135.54,35.45v8.45h-1.69v-8.45h1.69Z"/>
          <path class="cls-2" d="M137.36,37.43c.38-.66.89-1.17,1.54-1.54.65-.37,1.38-.55,2.18-.55.94,0,1.77.24,2.48.73.71.48,1.21,1.15,1.49,2.01h-1.95c-.19-.4-.47-.71-.82-.91-.35-.2-.76-.3-1.22-.3-.49,0-.93.11-1.31.34-.38.23-.68.55-.9.97s-.32.91-.32,1.48.11,1.05.32,1.47c.21.42.51.75.9.98.38.23.82.34,1.31.34.46,0,.86-.1,1.22-.31.35-.21.62-.51.82-.91h1.95c-.28.86-.78,1.54-1.48,2.01-.71.48-1.53.72-2.49.72-.81,0-1.53-.18-2.18-.55-.65-.37-1.16-.88-1.54-1.53-.38-.65-.56-1.4-.56-2.23s.19-1.57.56-2.23Z"/>
          <path class="cls-2" d="M148.19,36.82v2.12h2.84v1.34h-2.84v2.24h3.21v1.38h-4.9v-8.46h4.9v1.38h-3.21Z"/>
        </g>
        <g>
          <circle class="cls-1" cx="96.76" cy="40.12" r="1.76"/>
          <path class="cls-1" d="M159.95,40.12c0,.97-.79,1.76-1.76,1.76s-1.76-.79-1.76-1.76.79-1.76,1.76-1.76,1.76.79,1.76,1.76Z"/>
        </g>
      </g>
    </g>
  </g>
</svg>